<svg xmlns="http://www.w3.org/2000/svg" width="180" height="44" viewBox="0 0 180 44">
  <defs>
    <linearGradient id="g" x1="0" x2="1" y1="0" y2="1">
      <stop offset="0%" stop-color="#00F5D4"/>
      <stop offset="100%" stop-color="#2DD4BF"/>
    </linearGradient>
  </defs>
  <rect rx="12" ry="12" x="0" y="0" width="180" height="44" fill="#0B0F14"/>
  <g transform="translate(12,9)">
    <path d="M10 22c-3-2-5-5-5-8 0-5 4-9 9-9s9 4 9 9c0 3-2 6-5 8l2 3c1 1 0 2-1 2h-10c-1 0-2-1-1-2l2-3z" fill="url(#g)"/>
    <circle cx="14" cy="7" r="2" fill="#0B0F14"/>
  </g>
  <text x="56" y="28" fill="url(#g)" font-size="18" font-family="Inter, system-ui, -apple-system, Segoe UI, Roboto, Arial, sans-serif" font-weight="800">Shop Genie</text>
</svg>